<svg xmlns="http://www.w3.org/2000/svg" viewBox="0 0 149.29 79.77"><defs><style>.cls-1{fill:#3d3935;}.cls-2{fill:#da291c;}.cls-3{fill:#fff;}</style></defs><g id="Capa_2" data-name="Capa 2"><g id="Capa_1-2" data-name="Capa 1"><rect class="cls-1" x="55.82" width="93.47" height="63.81"/><rect class="cls-2" width="52.61" height="63.81"/><path class="cls-3" d="M39.93,9.78a.42.42,0,0,0,0-.25.62.62,0,0,0-.26-.16V9.14l.92.36.17,2.18,1.63-1.55.92.34-.07.19a.78.78,0,0,0-.34-.05.46.46,0,0,0-.14.21l-.71,1.74c-.06.13-.06.21,0,.23a.57.57,0,0,0,.23.16v.22L41,12.7l.08-.19a.67.67,0,0,0,.35.05.63.63,0,0,0,.16-.25l.59-1.45L40.41,12.5l-.12-.07-.17-2.22-.51,1.26a.68.68,0,0,0-.08.41.63.63,0,0,0,.23.14v.23l-1.12-.41.08-.18a.65.65,0,0,0,.38,0,.83.83,0,0,0,.2-.34ZM37,9l-.36,1.29a1.09,1.09,0,0,0,0,.48c0,.22.2.36.51.44a.72.72,0,0,0,.72-.13,1.26,1.26,0,0,0,.24-.52l.3-1.05a.71.71,0,0,0,0-.38A.44.44,0,0,0,38.17,9l0-.23,1.14.29-.06.2c-.23,0-.33,0-.37,0a.72.72,0,0,0-.16.34l-.3,1.05a1.43,1.43,0,0,1-.34.65,1.11,1.11,0,0,1-1.14.2,1,1,0,0,1-.87-.71,1.08,1.08,0,0,1,0-.66l.36-1.26c0-.15,0-.22,0-.25s-.09-.07-.25-.13l0-.22,1.37.34-.06.2a.93.93,0,0,0-.36,0A.37.37,0,0,0,37,9M35.43,9c0-.29,0-.42-.1-.48s-.17-.12-.43-.17l-.17,0-.41,2a.36.36,0,0,0,0,.25.87.87,0,0,0,.3.13l0,.21-1.42-.26,0-.21c.26,0,.35,0,.37,0s.07-.09.11-.28l.41-2L34,8.2a.74.74,0,0,0-.46,0,.66.66,0,0,0-.25.35l-.27,0,.21-.83,2.59.47-.15.84ZM32.66,10.6l-2.49-.29,0-.2c.23,0,.32,0,.35,0s.05-.07.07-.23L30.87,8c0-.15,0-.22,0-.25a.57.57,0,0,0-.27-.1l0-.21,1.4.16,0,.21c-.24,0-.33,0-.37,0s-.06.07-.08.2l-.26,2a.17.17,0,0,0,0,.08l.15,0,.2,0a2.15,2.15,0,0,0,.77,0,1.06,1.06,0,0,0,.44-.41H33ZM27.44,9.31l1-2.06h.18l1,2.44a.74.74,0,0,0,.15.27.37.37,0,0,0,.2.09l0,.2-1.28,0V10l.3,0V9.83L29,9.68l-.15-.37-1.06,0-.2.45a.35.35,0,0,0,0,.12.08.08,0,0,0,0,.08.57.57,0,0,0,.21.05l.05.21-1,0V10a.42.42,0,0,0,.28-.1,3.36,3.36,0,0,0,.3-.54M28.77,9l-.37-.91L28,9Zm-6-1.2a2,2,0,0,0-.2-.15.71.71,0,0,0-.19,0l-.1-.2.88,0,1.73,1.76-.09-1.2a.59.59,0,0,0-.11-.39.69.69,0,0,0-.28,0l-.09-.21,1.19-.07v.2c-.22,0-.31.08-.34.13a.72.72,0,0,0,0,.37l.17,2.27h-.18l-2-2,.11,1.42c0,.23.06.35.12.39s.1,0,.26.06l.09.2-1.19.08v-.2c.24,0,.33-.08.35-.13s.06-.15,0-.38Zm-1.72.29c0-.15-.05-.22-.09-.24a.66.66,0,0,0-.3,0l-.11-.21L22,7.46l0,.21c-.25,0-.34.07-.36.1s-.05.1,0,.26l.24,1.83c0,.17.06.23.08.24a.73.73,0,0,0,.32,0l.11.2-1.46.16,0-.21c.25,0,.34-.07.37-.1s0-.09,0-.25ZM18.54,7.9l.2-.08.28,1-.23.05a1.42,1.42,0,0,0-.33-.42.83.83,0,0,0-.72-.15.84.84,0,0,0-.62.44,1.35,1.35,0,0,0-.07,1,1.23,1.23,0,0,0,.47.77,1,1,0,0,0,.78.16,1.17,1.17,0,0,0,.55-.26,1.56,1.56,0,0,0,.29-.32l.25.07a1.46,1.46,0,0,1-.33.45,1.73,1.73,0,0,1-.77.4A1.62,1.62,0,0,1,17,10.78a1.46,1.46,0,0,1-.63-.93,1.48,1.48,0,0,1,.18-1.13,1.52,1.52,0,0,1,1.05-.67,1.75,1.75,0,0,1,.52,0l.27,0,.07,0a.16.16,0,0,0,.05-.09M13.67,9.57l.42,1.28a1.15,1.15,0,0,0,.23.43.62.62,0,0,0,.67.11c.33-.09.49-.25.54-.47a1.18,1.18,0,0,0-.09-.56l-.33-1C15,9.1,15,9,14.93,9a.41.41,0,0,0-.3,0l-.14-.19,1.13-.33.06.21c-.22.08-.28.14-.3.19a.67.67,0,0,0,.06.37l.33,1a1.42,1.42,0,0,1,.08.71,1.07,1.07,0,0,1-.85.75,1.14,1.14,0,0,1-1.15-.17,1.35,1.35,0,0,1-.34-.58l-.4-1.24c0-.16-.1-.21-.13-.22a.55.55,0,0,0-.29,0l-.14-.18L13.9,9l.07.2c-.23.08-.3.13-.32.16s0,.1,0,.25M9.81,10.86c-.06-.13-.11-.19-.14-.2a.6.6,0,0,0-.27,0l-.16-.17,1.19-.43a2.58,2.58,0,0,1,1.05-.18,1.37,1.37,0,0,1,1.22.91,1.25,1.25,0,0,1,.1.63,1.2,1.2,0,0,1-.2.61,1.42,1.42,0,0,1-.28.31,2.7,2.7,0,0,1-.76.41l-1.21.44-.08-.2a1,1,0,0,0,.29-.17.42.42,0,0,0-.05-.25Zm2.3.18a1.09,1.09,0,0,0-.71-.71,1.51,1.51,0,0,0-1,.06.34.34,0,0,0-.15.08s0,0,0,.07l.8,2c0,.06.05.07.06.07a.42.42,0,0,0,.17-.05A1.55,1.55,0,0,0,12,12.1,1,1,0,0,0,12.11,11"/><path class="cls-2" d="M42,27.51V15.44H10.65V27.51A48.4,48.4,0,0,0,12,39.74C13.81,46.47,18.65,52,26.33,56c7.68-4,12.49-9.57,14.35-16.3A49.41,49.41,0,0,0,42,27.51"/><path class="cls-3" d="M26.33,56.77l-.3-.16c-7.83-4.11-12.77-9.73-14.69-16.7A49.37,49.37,0,0,1,10,27.51V14.79H42.62V27.51a49.81,49.81,0,0,1-1.33,12.4c-1.93,7-6.87,12.61-14.67,16.7Zm-15-40.69V27.51a48.17,48.17,0,0,0,1.28,12.06C14.37,46.1,19,51.39,26.33,55.32c7.3-3.91,11.92-9.21,13.73-15.75a48.51,48.51,0,0,0,1.29-12.06l0-11.43Z"/><path class="cls-3" d="M19.69,28.07v.27a2.15,2.15,0,0,0-1.17.29,1.45,1.45,0,0,0-.26,1v4.71a4,4,0,0,0,.33,1.81A2.44,2.44,0,0,0,21,37.37a2.66,2.66,0,0,0,2.57-1.21,4.48,4.48,0,0,0,.37-2.09V30.23a2.29,2.29,0,0,0-.31-1.5,1.91,1.91,0,0,0-1.16-.39v-.27h3.62v.27a1.89,1.89,0,0,0-1.19.42,2.55,2.55,0,0,0-.27,1.47v3.84a4.76,4.76,0,0,1-.5,2.38C23.49,37.51,22.33,38,20.62,38s-2.84-.51-3.46-1.56a4.27,4.27,0,0,1-.49-2.2v-4.6c0-.54-.09-.88-.27-1a2.23,2.23,0,0,0-1.15-.3v-.27Zm6.88,9.75v-.26a1.29,1.29,0,0,0,.9-.43,11.18,11.18,0,0,0,1-2l3.26-7.24h.3L36,36.25a3.42,3.42,0,0,0,.62,1,1.57,1.57,0,0,0,.79.27v.26h-4v-.26a4.1,4.1,0,0,0,.88-.14c.13-.06.19-.19.2-.41a2.44,2.44,0,0,0-.07-.38,6.12,6.12,0,0,0-.22-.58l-.65-1.41h-4.1c-.41,1-.65,1.55-.73,1.76a1.8,1.8,0,0,0-.11.51.52.52,0,0,0,.31.52,2.78,2.78,0,0,0,.76.13v.26ZM33.32,34,31.51,30,29.72,34Z"/><path class="cls-3" d="M65.21,17.33v4.76c0,1.79.81,2.56,1.88,2.56s2-.79,2-2.56V17.33h1V22c0,2.46-1.3,3.47-3,3.47s-2.88-.94-2.88-3.43V17.33Z"/><path class="cls-3" d="M72.84,25.36v-8H74l2.58,4.07A22.55,22.55,0,0,1,78,24h0c-.1-1.07-.12-2-.12-3.3V17.33h1v8H77.82l-2.55-4.07a27.05,27.05,0,0,1-1.5-2.68h0c.05,1,.08,2,.08,3.31v3.43Z"/><rect class="cls-3" x="81.64" y="17.34" width="1.04" height="8.03"/><path class="cls-3" d="M87.2,25.36l-2.62-8H85.7l1.25,4c.34,1.08.64,2.06.86,3h0c.23-.93.56-1.94.92-3l1.36-4h1.1l-2.87,8Z"/><polygon class="cls-3" points="97.19 21.6 94.07 21.6 94.07 24.49 97.56 24.49 97.56 25.36 93.04 25.36 93.04 17.33 97.37 17.33 97.37 18.2 94.07 18.2 94.07 20.74 97.19 20.74 97.19 21.6"/><path class="cls-3" d="M100.89,21.1H102c1.11,0,1.81-.61,1.81-1.53s-.75-1.49-1.84-1.5a4,4,0,0,0-1,.1Zm-1-3.66a10.62,10.62,0,0,1,2-.17,3.26,3.26,0,0,1,2.33.66,2,2,0,0,1,.63,1.53,2.1,2.1,0,0,1-1.52,2v0a2,2,0,0,1,1.18,1.62,12.83,12.83,0,0,0,.63,2.2H104a10,10,0,0,1-.53-1.92c-.24-1.1-.67-1.52-1.61-1.56h-1v3.48h-1Z"/><path class="cls-3" d="M107.08,24.1a3.6,3.6,0,0,0,1.85.52c1.06,0,1.68-.56,1.68-1.37s-.43-1.17-1.51-1.59c-1.31-.47-2.12-1.15-2.12-2.28a2.31,2.31,0,0,1,2.6-2.18,3.55,3.55,0,0,1,1.77.4l-.29.84a3.23,3.23,0,0,0-1.52-.38c-1.1,0-1.51.65-1.51,1.2,0,.75.48,1.12,1.59,1.55,1.36.53,2,1.18,2,2.36s-.92,2.31-2.81,2.31a4.13,4.13,0,0,1-2-.51Z"/><rect class="cls-3" x="114.04" y="17.34" width="1.04" height="8.03"/><path class="cls-3" d="M118.88,24.54a6.32,6.32,0,0,0,1.05.06,3.09,3.09,0,0,0,3.42-3.41c0-1.89-1.06-3.1-3.25-3.1a5.89,5.89,0,0,0-1.22.11Zm-1-7.1a14.3,14.3,0,0,1,2.21-.17,4.61,4.61,0,0,1,3.25,1,3.7,3.7,0,0,1,1.13,2.89,4.25,4.25,0,0,1-1.15,3.12,5,5,0,0,1-3.55,1.15,17,17,0,0,1-1.89-.09Z"/><path class="cls-3" d="M130.5,22l-.78-2.32a12.75,12.75,0,0,1-.42-1.46h0c-.12.48-.25,1-.41,1.45L128.08,22Zm-2.64.81L127,25.36H126l2.73-8h1.25l2.74,8h-1.11l-.86-2.52Z"/><path class="cls-3" d="M135.85,24.54a6.25,6.25,0,0,0,1.05.06,3.09,3.09,0,0,0,3.42-3.41c0-1.89-1.06-3.1-3.26-3.1a5.78,5.78,0,0,0-1.21.11Zm-1-7.1a15.54,15.54,0,0,1,2.21-.17,4.6,4.6,0,0,1,3.25,1,3.7,3.7,0,0,1,1.13,2.88,4.25,4.25,0,0,1-1.16,3.12,4.92,4.92,0,0,1-3.54,1.15,16.72,16.72,0,0,1-1.89-.09Z"/><path class="cls-3" d="M68.62,33.33l-.91-2.68c-.21-.61-.34-1.16-.48-1.7h0c-.14.56-.3,1.12-.48,1.69l-.91,2.69Zm-3,.94-1,2.92H63.37l3.15-9.3H68l3.17,9.3H69.86l-1-2.92Z"/><path class="cls-3" d="M74.43,27.89V33.4c0,2.08.93,3,2.16,3,1.39,0,2.27-.91,2.27-3V27.89h1.21v5.42c0,2.86-1.5,4-3.51,4s-3.34-1.08-3.34-4V27.89Z"/><polygon class="cls-3" points="85.03 28.91 82.19 28.91 82.19 27.89 89.08 27.89 89.08 28.91 86.24 28.91 86.24 37.19 85.03 37.19 85.03 28.91"/><path class="cls-3" d="M91.58,32.6c0,2,1.08,3.76,3,3.76s3-1.75,3-3.86c0-1.85-1-3.78-3-3.78s-3,1.84-3,3.88m7.21-.16c0,3.2-1.94,4.9-4.31,4.9s-4.18-1.9-4.18-4.72,1.83-4.88,4.31-4.88,4.18,2,4.18,4.7"/><path class="cls-3" d="M101.45,37.19v-9.3h1.32l3,4.71a24.8,24.8,0,0,1,1.67,3l0,0c-.11-1.24-.14-2.37-.14-3.82V27.89h1.14v9.3h-1.22l-3-4.71a30.78,30.78,0,0,1-1.74-3.11h0c.07,1.18.1,2.29.1,3.84v4Z"/><path class="cls-3" d="M112.37,32.6c0,2,1.07,3.76,3,3.76s3-1.75,3-3.86c0-1.85-1-3.78-3-3.78s-3,1.84-3,3.88m7.21-.16c0,3.2-1.94,4.9-4.32,4.9s-4.18-1.9-4.18-4.72,1.84-4.88,4.32-4.88,4.18,2,4.18,4.7"/><path class="cls-3" d="M130.08,33.11c-.07-1.3-.15-2.86-.14-4h0c-.31,1.09-.7,2.25-1.17,3.54l-1.64,4.51h-.91l-1.51-4.43c-.44-1.31-.81-2.51-1.07-3.62h0c0,1.16-.1,2.72-.18,4.12l-.25,4H122l.64-9.3h1.54l1.58,4.5c.39,1.14.7,2.17.94,3.13h0c.24-.94.57-2,1-3.13l1.66-4.5h1.53l.58,9.3h-1.18Z"/><path class="cls-3" d="M138.85,33.33l-.91-2.68c-.2-.61-.34-1.16-.48-1.7h0c-.13.56-.29,1.12-.47,1.69l-.91,2.69Zm-3,.94-1,2.92H133.6l3.16-9.3h1.45l3.17,9.3H140.1l-1-2.92Z"/><path class="cls-3" d="M64.21,46.48a5.17,5.17,0,0,0,.85.05,2.51,2.51,0,0,0,2.79-2.77,2.34,2.34,0,0,0-2.65-2.52,4.62,4.62,0,0,0-1,.09Zm-.84-5.78a13.15,13.15,0,0,1,1.79-.13,3.77,3.77,0,0,1,2.65.81,3,3,0,0,1,.92,2.35,3.45,3.45,0,0,1-.94,2.54,4,4,0,0,1-2.89.94,13.1,13.1,0,0,1-1.53-.08Z"/><polygon class="cls-3" points="78.19 44.09 75.65 44.09 75.65 46.44 78.48 46.44 78.48 47.15 74.81 47.15 74.81 40.62 78.34 40.62 78.34 41.33 75.65 41.33 75.65 43.39 78.19 43.39 78.19 44.09"/><path class="cls-3" d="M96.74,46.94a4.09,4.09,0,0,1-1.72.31,3.05,3.05,0,0,1-3.23-3.31,3.25,3.25,0,0,1,3.41-3.43,3.45,3.45,0,0,1,1.55.29l-.2.69a3,3,0,0,0-1.32-.27,2.43,2.43,0,0,0-2.55,2.69,2.38,2.38,0,0,0,2.51,2.63,3.32,3.32,0,0,0,1.38-.27Z"/><polygon class="cls-3" points="103.49 40.62 103.49 43.35 106.65 43.35 106.65 40.62 107.5 40.62 107.5 47.15 106.65 47.15 106.65 44.09 103.49 44.09 103.49 47.15 102.64 47.15 102.64 40.62 103.49 40.62"/><rect class="cls-3" x="115.46" y="40.61" width="0.84" height="6.54"/><polygon class="cls-3" points="124.86 40.62 125.71 40.62 125.71 46.45 128.5 46.45 128.5 47.15 124.86 47.15 124.86 40.62"/><polygon class="cls-3" points="139.03 44.09 136.49 44.09 136.49 46.44 139.32 46.44 139.32 47.15 135.65 47.15 135.65 40.62 139.18 40.62 139.18 41.33 136.49 41.33 136.49 43.39 139.03 43.39 139.03 44.09"/><polygon class="cls-2" points="61.77 79.66 61.76 75.91 59.92 79 59.26 79 57.43 75.99 57.43 79.66 56.07 79.66 56.07 73.41 57.27 73.41 59.61 77.29 61.92 73.41 63.1 73.41 63.12 79.66 61.77 79.66"/><path class="cls-2" d="M69.17,78.32h-2.9l-.56,1.34H64.23L67,73.4h1.43l2.79,6.26H69.72Zm-.46-1.1-1-2.39-1,2.39ZM68,72.9H66.92l1.2-1.29h1.5Z"/><path class="cls-2" d="M71.85,79,72.34,78a3.64,3.64,0,0,0,2.06.66c.86,0,1.21-.29,1.21-.67,0-1.18-3.64-.37-3.64-2.69,0-1.07.86-2,2.64-2a4.27,4.27,0,0,1,2.17.55L76.33,75a3.53,3.53,0,0,0-1.73-.49c-.86,0-1.19.32-1.19.71,0,1.16,3.64.36,3.64,2.66,0,1-.87,1.94-2.66,1.94A4.42,4.42,0,0,1,71.85,79"/><path class="cls-1" d="M81.49,77V73.4h.66V77c0,1.48.7,2.16,1.92,2.16S86,78.44,86,77V73.4h.64V77a2.57,2.57,0,1,1-5.14,0"/><polygon class="cls-1" points="94.3 73.41 94.3 79.66 93.75 79.66 89.73 74.58 89.73 79.66 89.07 79.66 89.07 73.41 89.61 73.41 93.64 78.48 93.64 73.41 94.3 73.41"/><rect class="cls-1" x="96.78" y="73.4" width="0.66" height="6.26"/><polygon class="cls-1" points="105.05 73.41 102.28 79.66 101.63 79.66 98.86 73.41 99.57 73.41 101.97 78.84 104.38 73.41 105.05 73.41"/><polygon class="cls-1" points="110.82 79.09 110.82 79.66 106.4 79.66 106.4 73.4 110.69 73.4 110.69 73.98 107.06 73.98 107.06 76.2 110.29 76.2 110.29 76.76 107.06 76.76 107.06 79.09 110.82 79.09"/><path class="cls-1" d="M117.09,79.66l-1.43-2a4,4,0,0,1-.5,0h-1.68v2h-.66V73.4h2.34c1.59,0,2.55.81,2.55,2.15a1.94,1.94,0,0,1-1.42,2l1.52,2.14Zm0-4.11c0-1-.66-1.57-1.91-1.57h-1.66v3.13h1.66c1.25,0,1.91-.58,1.91-1.56"/><path class="cls-1" d="M119.12,78.9l.26-.51a3.07,3.07,0,0,0,2.07.76c1.17,0,1.68-.49,1.68-1.11,0-1.71-3.85-.66-3.85-3,0-.92.71-1.72,2.3-1.72a3.59,3.59,0,0,1,1.94.55l-.22.53a3.24,3.24,0,0,0-1.72-.52c-1.14,0-1.65.51-1.65,1.14,0,1.71,3.85.68,3.85,3,0,.92-.73,1.7-2.33,1.7a3.43,3.43,0,0,1-2.33-.81"/><rect class="cls-1" x="125.66" y="73.4" width="0.66" height="6.26"/><path class="cls-1" d="M128.81,73.4h2.54a3.14,3.14,0,1,1,0,6.26h-2.54Zm2.51,5.69a2.56,2.56,0,1,0,0-5.11h-1.85v5.11Z"/><path class="cls-1" d="M140.46,78H137l-.75,1.67h-.69l2.86-6.25h.65l2.86,6.25h-.7Zm-.24-.54-1.5-3.36-1.5,3.36Z"/><path class="cls-1" d="M143.39,73.4h2.55a3.14,3.14,0,1,1,0,6.26h-2.55Zm2.51,5.69a2.56,2.56,0,1,0,0-5.11h-1.85v5.11Z"/></g></g></svg>
